<?xml version="1.0" encoding="UTF-8"?>
<svg width="736px" height="252px" viewBox="0 0 184 63" version="1.1" xmlns="http://www.w3.org/2000/svg" xmlns:xlink="http://www.w3.org/1999/xlink">
    <!-- Generator: Sketch 42 (36781) - http://www.bohemiancoding.com/sketch -->
    <title>logo_svg_updated</title>
    <desc>Created with Sketch.</desc>
    <defs>
        <filter x="-50%" y="-50%" width="200%" height="200%" filterUnits="objectBoundingBox" id="filter-1">
            <feOffset dx="0" dy="2" in="SourceAlpha" result="shadowOffsetOuter1"></feOffset>
            <feGaussianBlur stdDeviation="5" in="shadowOffsetOuter1" result="shadowBlurOuter1"></feGaussianBlur>
            <feColorMatrix values="0 0 0 0 0   0 0 0 0 0   0 0 0 0 0  0 0 0 0.1 0" type="matrix" in="shadowBlurOuter1" result="shadowMatrixOuter1"></feColorMatrix>
            <feMerge>
                <feMergeNode in="shadowMatrixOuter1"></feMergeNode>
                <feMergeNode in="SourceGraphic"></feMergeNode>
            </feMerge>
        </filter>
    </defs>
    <g id="Page-1" stroke="none" stroke-width="1" fill="none" fill-rule="evenodd">
        <g id="a.-Homepage---Dropdown" transform="translate(-240.000000, -9.000000)">
            <g id="Header" filter="url(#filter-1)">
                <g id="Page-1" transform="translate(240.000000, 9.000000)">
                    <path d="M14.4121,29.98 C14.0721,29.641 13.6481,29.355 13.1401,29.121 C12.6301,28.888 12.1321,28.771 11.6431,28.771 C11.4531,28.771 11.2571,28.793 11.0561,28.834 C10.8531,28.877 10.6681,28.957 10.4991,29.073 C10.3291,29.19 10.1911,29.339 10.0851,29.519 C9.9781,29.699 9.9271,29.927 9.9271,30.203 C9.9271,30.584 10.0631,30.892 10.3401,31.125 C10.6151,31.359 11.0921,31.677 11.7711,32.08 C12.1531,32.292 12.5711,32.568 13.0281,32.907 C13.4841,33.247 13.9191,33.66 14.3321,34.147 C14.7461,34.636 15.0911,35.219 15.3661,35.897 C15.6421,36.576 15.7801,37.361 15.7801,38.252 C15.7801,39.673 15.5251,40.892 15.0171,41.91 C14.5081,42.928 13.8441,43.767 13.0281,44.423 C12.2111,45.081 11.2891,45.564 10.2601,45.871 C9.2311,46.179 8.2081,46.332 7.1901,46.332 C5.6421,46.332 4.2361,46.11 2.9741,45.664 C1.7131,45.219 0.7221,44.668 0.0001,44.01 L3.8171,38.952 C4.2421,39.312 4.7451,39.615 5.3291,39.858 C5.9121,40.102 6.5001,40.224 7.0951,40.224 C7.5181,40.224 7.9061,40.113 8.2561,39.89 C8.6051,39.668 8.7801,39.312 8.7801,38.825 C8.7801,38.464 8.6421,38.13 8.3671,37.822 C8.0921,37.515 7.5821,37.149 6.8401,36.725 C6.3511,36.449 5.8751,36.136 5.4081,35.786 C4.9411,35.436 4.5281,35.034 4.1681,34.577 C3.8071,34.121 3.5201,33.586 3.3081,32.971 C3.0971,32.355 2.9901,31.645 2.9901,30.839 C2.9901,29.757 3.1861,28.728 3.5791,27.753 C3.9721,26.778 4.5381,25.924 5.2811,25.192 C6.0231,24.46 6.9251,23.877 7.9851,23.442 C9.0461,23.008 10.2441,22.79 11.5801,22.79 C13.0641,22.79 14.3911,23.008 15.5581,23.442 C16.7241,23.877 17.6141,24.423 18.2291,25.081 L14.4121,29.98 Z" id="Fill-1" fill="#000000"></path>
                    <polygon id="Fill-3" fill="#000000" points="33.4365 45.8232 26.7875 45.8232 28.3145 37.1062 24.9735 37.1062 23.4475 45.8232 16.8295 45.8232 20.7425 23.2992 27.3285 23.2992 25.9595 31.1252 29.3315 31.1252 30.6675 23.2992 37.3495 23.2992"></polygon>
                    <polygon id="Fill-5" fill="#000000" points="43.5527 45.8232 36.8087 45.8232 40.7217 23.2992 47.4657 23.2992"></polygon>
                    <path d="M58.8554,30.6802 C58.8554,30.0652 58.6964,29.6142 58.3784,29.3282 C58.0604,29.0412 57.6994,28.8982 57.2964,28.8982 L56.3414,28.8982 L55.6104,33.2572 L56.5334,33.2572 C57.1904,33.2572 57.7424,33.0182 58.1874,32.5412 C58.6324,32.0642 58.8554,31.4432 58.8554,30.6802 M65.0914,29.6942 C65.0914,31.1572 64.8694,32.4402 64.4224,33.5432 C63.9774,34.6462 63.3684,35.5752 62.5934,36.3262 C61.8194,37.0802 60.8914,37.6472 59.8094,38.0292 C58.7284,38.4102 57.5514,38.6012 56.2784,38.6012 L54.6874,38.6012 L53.4154,45.8232 L46.9254,45.8232 L50.8384,23.2992 L58.3144,23.2992 C59.0984,23.2992 59.8944,23.4102 60.7004,23.6332 C61.5054,23.8562 62.2324,24.2172 62.8794,24.7152 C63.5264,25.2132 64.0564,25.8712 64.4704,26.6872 C64.8844,27.5042 65.0914,28.5062 65.0914,29.6942" id="Fill-7" fill="#000000"></path>
                    <path d="M79.3506,57.8066 C80.8616,57.5186 83.8146,57.2106 85.1506,56.3476 C86.4646,55.4986 86.7296,53.7556 86.7136,53.5726 C86.6986,53.3886 87.0206,53.5466 87.0206,53.5466 C87.0206,53.5466 88.2066,52.2146 88.1916,52.0306 C88.1756,51.8476 87.6966,50.5286 86.2826,50.5836 C84.8676,50.6386 84.5756,51.5896 84.5756,51.5896 C84.5756,51.5896 85.6716,52.9176 85.5656,53.1116 C85.5256,53.1846 84.9626,53.9956 84.3496,54.3456 C83.3246,54.9296 82.0066,55.1266 81.6516,55.0396 C81.0846,54.9016 79.7986,54.2676 77.0756,55.6646 C76.0666,56.1826 74.8966,56.4006 73.7546,56.4306 L70.4866,56.2056 C68.9426,56.3696 62.6756,55.1846 62.4156,55.1606 C62.1566,55.1376 60.1386,57.1366 59.6986,57.1826 C59.2566,57.2296 63.0586,60.0676 63.0586,60.0676 C63.0586,60.0676 69.1586,60.3056 71.6586,59.9146 C72.9966,59.7056 74.3806,59.5126 75.8886,59.0566 C77.4316,58.5906 77.4236,58.1736 79.3506,57.8066" id="Fill-31" fill="#FF5E01"></path>
                    <path d="M82.0146,60.3784 C83.9276,59.7874 86.9636,58.5984 88.8596,56.3684 C92.0036,52.6684 92.9306,50.0784 92.9306,50.0784 C92.9306,50.0784 100.7006,49.1524 112.3566,48.9684 C112.6186,48.9634 112.5416,52.1134 112.5416,52.1134 L95.3336,53.0384 C95.3336,53.0384 96.9996,54.8884 91.4496,57.2934 C86.5006,59.4384 86.5526,61.2144 82.9506,61.9674 C82.9506,61.9674 78.5506,62.5354 78.6226,61.7424 C78.6956,60.9494 82.0146,60.3784 82.0146,60.3784" id="Fill-33" fill="#000000"></path>
                    <path d="M112.207,51.4131 L113.144,51.4131 C113.302,51.4131 113.723,52.0621 114.589,52.0331 C115.495,52.0021 116.593,51.8721 116.964,51.8631 C117.669,51.8461 117.841,51.0371 117.76,50.5841 C118.148,50.4481 118.781,50.3831 119.516,50.3521 C121.391,50.2721 122.687,50.4431 122.158,48.7091 C120.905,48.7401 117.508,48.6011 116.317,48.7451 C114.844,48.9241 114.407,49.1061 113.538,49.1261 L112.243,49.1781 L112.243,49.1801 L112.261,49.6101 L113.549,49.5591 C114.067,49.5461 114.445,49.4791 114.923,49.3951 C115.283,49.3311 115.731,49.2521 116.37,49.1741 C116.771,49.1261 117.463,49.1111 118.231,49.1111 C118.872,49.1111 119.566,49.1221 120.191,49.1311 C120.76,49.1391 121.273,49.1461 121.687,49.1461 L121.82,49.1461 C121.861,49.3671 121.85,49.5291 121.789,49.6151 C121.616,49.8551 120.836,49.8781 120.081,49.9001 C119.893,49.9051 119.698,49.9111 119.497,49.9201 C118.605,49.9571 118.008,50.0391 117.617,50.1761 L117.268,50.2971 L117.334,50.6601 C117.369,50.8561 117.327,51.1561 117.195,51.3171 C117.133,51.3931 117.059,51.4281 116.953,51.4311 C116.787,51.4341 116.512,51.4591 116.164,51.4891 C115.688,51.5311 115.096,51.5821 114.574,51.6001 C114.559,51.6011 114.546,51.6011 114.532,51.6011 C114.106,51.6011 113.831,51.3771 113.629,51.2121 C113.483,51.0931 113.346,50.9801 113.144,50.9801 L112.207,50.9801 L112.207,51.4371 L112.207,51.4131 Z" id="Fill-35" fill="#000000"></path>
                    <path d="M72.9267,52.7832 C71.1117,52.7832 66.6347,51.7482 64.4177,51.8222 C58.1797,52.0272 52.4297,53.1432 52.4297,53.1432 C52.4297,53.1432 52.4527,49.6262 52.7367,49.5742 C60.6677,48.1322 79.7047,49.3702 79.7047,49.3702 C79.7047,49.3702 79.8487,52.7832 72.9267,52.7832" id="Fill-37" fill="#000000"></path>
                    <path d="M53.0068,52.3506 L51.5478,52.4006 L51.0328,52.4166 L50.9168,52.5416 C50.8198,52.6466 50.6888,52.8776 50.3648,53.4636 C50.2088,53.7496 50.0458,54.0446 49.9548,54.1856 C49.8778,54.3066 49.5148,54.5426 49.2738,54.6986 C48.9918,54.8816 48.7258,55.0546 48.5388,55.2366 C48.5098,55.1866 48.4748,55.0866 48.4948,54.9406 C48.5288,54.6936 48.4418,54.5316 48.3598,54.4396 C48.1888,54.2436 47.9428,54.2216 47.7728,54.2216 C47.6718,54.2216 47.5558,54.2306 47.4318,54.2416 C47.3198,54.2516 47.2008,54.2626 47.0838,54.2626 C46.7988,54.2626 46.7588,54.1906 46.7428,54.1636 C46.5598,53.8386 46.5758,53.7536 46.6018,53.6126 C46.6228,53.4966 46.6518,53.3386 46.6168,53.1236 C46.5978,52.9996 46.5678,52.8866 46.5388,52.7756 C46.4728,52.5236 46.4288,52.3576 46.5278,52.0626 C46.6958,51.5726 46.8058,51.2006 46.7258,50.8906 C46.9338,50.6316 47.5868,50.0686 47.9568,49.8666 C48.1428,49.7656 48.5798,49.6626 49.1378,49.6626 C49.5168,49.6626 49.8718,49.7136 50.1108,49.8016 C50.5838,49.9746 51.1538,50.0686 51.5328,50.1166 C51.5328,50.1166 51.6808,50.1236 51.7998,50.1306 C51.8718,50.1346 53.1798,50.0926 53.1938,50.0926 C53.2328,50.0926 53.2238,49.7006 53.2238,49.7006 C53.2238,49.7006 51.9088,49.7406 51.7978,49.7286 C51.4788,49.6966 50.7888,49.6086 50.2538,49.4126 C49.5338,49.1496 48.2748,49.2216 47.7588,49.5036 C47.2428,49.7856 46.1718,50.7186 46.2828,50.8986 C46.3958,51.0786 46.3268,51.3706 46.1368,51.9306 C45.9468,52.4886 46.1408,52.7716 46.2088,53.1896 C46.2758,53.6086 45.9888,53.6716 46.3828,54.3676 C46.7758,55.0626 48.1678,54.2766 48.0848,54.8846 C48.0018,55.4926 48.4638,55.8966 48.8188,55.5416 C49.1748,55.1866 50.0798,54.7596 50.3038,54.4096 C50.5278,54.0596 51.0938,52.9606 51.2208,52.8236 L51.5488,52.8126 L53.0108,52.7616 L53.0068,52.3506 Z" id="Fill-39" fill="#000000"></path>
                    <path d="M92.0888,41.1733 C92.0888,40.7363 90.3458,40.3803 88.1948,40.3803 C86.0448,40.3803 84.3018,40.7363 84.3018,41.1733 C84.3018,41.6113 86.0448,41.9673 88.1948,41.9673 C90.3458,41.9673 92.0888,41.6113 92.0888,41.1733 L92.0888,41.1733 Z M99.9458,33.8823 C97.3888,33.8823 94.9558,32.7423 93.7478,30.9783 C93.0838,30.0083 92.2228,28.2683 91.9008,26.7393 C91.6728,25.6523 91.8118,24.7923 92.3248,24.1123 C93.1618,23.0043 94.9468,22.3923 97.9428,22.1843 C98.4788,22.1473 99.0278,22.1283 99.5748,22.1283 C103.1208,22.1283 105.5718,22.8713 106.1348,24.1153 C106.6488,25.2543 106.2448,27.1323 106.0738,27.9353 L106.0448,28.0703 C105.5148,30.5943 104.7898,32.4423 102.9858,33.2603 C102.0878,33.6683 101.0368,33.8823 99.9468,33.8823 L99.9458,33.8823 Z M77.5058,33.8353 C75.2758,33.8353 73.4878,33.0033 72.6048,31.5513 C72.1018,30.7263 71.7948,29.3253 71.5488,28.2003 L71.4958,27.9613 C71.2718,26.9423 70.8968,25.2373 71.4288,24.1213 C72.2198,22.4613 75.2568,22.3173 77.9358,22.1903 L78.0448,22.1843 C78.2698,22.1733 78.4988,22.1683 78.7348,22.1683 C81.6968,22.1683 85.1298,23.0283 85.6678,24.9173 C85.9708,25.9753 85.3938,27.4543 85.1158,28.1653 C84.6158,29.4493 84.1778,30.3733 83.8158,30.9103 C82.6148,32.6873 80.1388,33.8353 77.5058,33.8353 L77.5058,33.8353 Z M107.2378,30.0903 C107.6308,28.7823 107.7168,27.7333 108.3858,26.3913 C108.7128,25.7343 108.6028,25.8863 109.4678,24.8053 C109.4898,24.8053 109.6188,24.0743 109.6188,23.8673 L109.6188,22.3863 C109.2108,21.7433 108.3458,21.7973 107.3778,21.5463 C106.0858,21.2103 104.3418,20.8273 102.9028,20.6193 C102.7008,20.5893 102.2718,20.5563 101.8778,20.5323 C101.5338,20.5103 101.2178,20.4953 101.1028,20.4953 C100.7898,20.4953 99.9618,20.5073 99.8598,20.5143 C99.7608,20.5223 99.6608,20.5293 99.5618,20.5383 C100.0288,19.0103 100.9018,15.7413 100.3268,13.4273 C99.9228,11.8003 97.8888,10.7643 96.7038,10.8163 C96.4158,10.8283 98.0798,9.0493 96.2058,6.5983 C93.0408,2.4593 84.5828,0.5923 83.7248,0.0003 C83.0808,1.3253 87.6248,3.2603 87.6208,4.9043 C78.7788,2.8303 74.0898,4.1553 67.5718,3.4613 C70.1388,5.0293 73.6718,5.3413 76.5138,6.6333 C71.9498,6.0103 67.0618,7.2423 62.2358,6.7783 C64.8668,8.6663 68.0608,8.9833 71.0328,10.5273 C68.1818,11.0723 65.9868,12.4033 63.6788,12.6913 C66.7168,15.3253 70.3668,14.7553 73.1998,17.5953 C71.1258,17.6663 70.1198,18.2193 69.3028,18.1713 C69.6998,19.5903 71.4548,19.9583 72.4668,20.9203 C70.8348,21.2233 69.1318,21.6373 67.5958,22.0363 L67.5958,23.7873 C67.6088,24.8693 68.7068,25.3313 69.1368,26.2383 C69.6248,27.2743 69.7438,28.5623 70.1168,29.6713 C70.4788,30.7453 70.8758,31.9173 71.4468,32.8223 C72.3988,34.3263 74.0418,34.8603 76.0848,35.2303 C76.1668,37.2733 76.4788,44.6673 76.5138,44.9473 C77.0958,49.5203 81.7368,50.5923 87.3768,50.5923 C92.8958,50.5923 97.4568,49.5663 98.1958,45.2363 C98.2538,44.8973 98.6548,37.8473 98.7808,35.3503 C103.4588,35.6773 106.2428,33.4023 107.2378,30.0903 Z M97.5758,35.2003 C94.0978,34.5603 92.2338,32.2623 91.0588,29.1103 C90.7078,28.1693 90.5528,27.0323 89.9918,26.3753 C89.7068,26.0413 89.3178,25.8223 88.7418,25.8343 C88.4728,25.8393 88.1528,25.9693 87.9348,26.1533 C87.4528,26.5573 87.2458,27.1423 87.1338,27.4323 C86.7698,28.3693 86.5388,29.3473 86.0858,30.2313 C84.7368,32.8583 82.9478,35.1203 79.1368,35.3983 C79.0878,35.4013 78.6238,35.4193 78.5288,35.4203 C78.2038,35.4203 77.5988,35.4173 77.3068,35.4143 L77.2988,35.4143 C77.3858,37.6763 77.7008,44.7113 77.7468,44.9913 C78.3628,48.7933 82.4458,49.3783 87.3768,49.3783 C92.2368,49.3783 96.2768,48.8093 96.9788,45.1463 C97.0388,44.8293 97.4608,37.5453 97.5778,35.1973 L97.5758,35.2003 Z M98.1918,20.6973 C94.8258,21.1833 91.5828,22.2643 88.3268,22.1763 C84.5758,22.0753 80.6608,20.4483 76.8398,20.4953 C76.5138,20.4953 76.1098,20.4873 75.7828,20.4873 C75.6688,19.0163 75.5228,17.6593 76.0838,16.4423 C77.8008,12.7233 94.6798,12.7413 97.7168,15.8653 C97.9098,17.4303 98.0598,19.0683 98.1918,20.6943 L98.1918,20.6973 Z" id="Fill-41" fill="#000000"></path>
                    <polygon id="Fill-43" fill="#FF5E01" points="128.2646 45.8232 121.3296 45.8232 119.4516 34.7842 119.3576 34.7842 117.6706 45.8232 111.7526 45.8232 115.6656 23.2992 122.7606 23.2992 124.5416 34.6562 124.6696 34.6562 126.4506 23.2992 132.1776 23.2992"></polygon>
                    <polygon id="Fill-45" fill="#FF5E01" points="146.208 29.1528 140.896 29.1528 140.418 31.6978 145.317 31.6978 144.395 37.1378 139.495 37.1378 139.019 39.8748 144.936 39.8748 143.918 45.8228 131.637 45.8228 135.551 23.2988 147.227 23.2988"></polygon>
                    <path d="M158.0742,30.4888 C158.0742,29.8318 157.9002,29.3968 157.5502,29.1848 C157.2002,28.9728 156.8662,28.8658 156.5482,28.8658 L155.6562,28.8658 L154.9252,33.0338 L155.6252,33.0338 C156.2622,33.0338 156.8292,32.8428 157.3272,32.4618 C157.8252,32.0798 158.0742,31.4228 158.0742,30.4888 M164.7872,29.6308 C164.7872,31.2638 164.4642,32.6418 163.8162,33.7658 C163.1702,34.8898 162.2532,35.7068 161.0642,36.2158 L163.1962,45.8228 L156.1652,45.8228 L154.9572,37.6148 L154.1292,37.6148 L152.6982,45.8228 L146.3362,45.8228 L150.2492,23.2988 L158.0432,23.2988 C160.2272,23.2988 161.8972,23.8288 163.0532,24.8898 C164.2092,25.9508 164.7872,27.5308 164.7872,29.6308" id="Fill-47" fill="#FF5E01"></path>
                    <path d="M177.1308,32.8432 C177.1308,32.3772 177.0998,31.9202 177.0348,31.4752 C176.9728,31.0302 176.8548,30.6322 176.6858,30.2822 C176.5158,29.9322 176.2768,29.6512 175.9698,29.4392 C175.6618,29.2272 175.2758,29.1212 174.8088,29.1212 L174.2678,29.1212 L172.3908,40.0012 L172.9948,40.0012 C173.7788,40.0012 174.4378,39.7522 174.9668,39.2542 C175.4968,38.7562 175.9218,38.1402 176.2398,37.4092 C176.5588,36.6772 176.7858,35.8972 176.9238,35.0702 C177.0628,34.2432 177.1308,33.5012 177.1308,32.8432 L177.1308,32.8432 Z M164.6598,45.8232 L168.5728,23.2992 L175.2218,23.2992 C176.8338,23.2992 178.1968,23.5162 179.3108,23.9512 C180.4238,24.3862 181.3248,24.9962 182.0148,25.7812 C182.7028,26.5652 183.2018,27.5042 183.5098,28.5962 C183.8168,29.6882 183.9708,30.8922 183.9708,32.2072 C183.9708,33.0982 183.9068,34.0522 183.7798,35.0702 C183.6528,36.0882 183.4248,37.1012 183.0968,38.1082 C182.7678,39.1162 182.3278,40.0862 181.7758,41.0192 C181.2238,41.9532 180.5198,42.7752 179.6598,43.4852 C178.8018,44.1962 177.7728,44.7632 176.5738,45.1872 C175.3758,45.6122 173.9818,45.8232 172.3908,45.8232 L164.6598,45.8232 Z" id="Fill-49" fill="#FF5E01"></path>
                    <g id="Group" transform="translate(129.000000, 49.000000)" fill-rule="nonzero" fill="#000000">
                        <path d="M3.80775573,1.45429565 C3.58570992,1.17271304 3.28781679,1.03210435 2.91517557,1.03210435 C2.78912977,1.03210435 2.65978626,1.05730435 2.52751145,1.10843478 C2.39523664,1.15956522 2.27651908,1.23406957 2.17135878,1.33267826 C2.06619847,1.43165217 1.97935878,1.55874783 1.91010687,1.71469565 C1.84085496,1.87064348 1.80641221,2.05033043 1.80641221,2.25375652 C1.80641221,2.51123478 1.87273282,2.7194087 2.00464122,2.87827826 C2.13691603,3.03714783 2.31425954,3.18506087 2.53630534,3.32311304 C2.68067176,3.4125913 2.81880916,3.50864348 2.95108397,3.61053913 C3.08299237,3.71206957 3.20207634,3.82930435 3.30723664,3.96078261 C3.41239695,4.09226087 3.49667176,4.24236522 3.55932824,4.40963478 C3.62271756,4.57726957 3.65422901,4.76608696 3.65422901,4.97572174 C3.65422901,5.29930435 3.60439695,5.58526957 3.50546565,5.83361739 C3.40616794,6.08233043 3.26949618,6.29342609 3.09545038,6.46690435 C2.92140458,6.64038261 2.71548092,6.7725913 2.4780458,6.86206957 C2.24061069,6.95191304 1.98668702,6.99683478 1.71627481,6.99683478 C1.392,6.99683478 1.09007634,6.93073043 0.810503817,6.79925217 C0.530931298,6.66777391 0.313282443,6.49685217 0.15719084,6.28721739 L0.680061069,5.73062609 C0.800244275,5.90446957 0.95010687,6.04069565 1.13038168,6.13930435 C1.31065649,6.23791304 1.50558779,6.28721739 1.71627481,6.28721739 C1.86650382,6.28721739 2.01087023,6.26201739 2.14900763,6.21088696 C2.28751145,6.16012174 2.41062595,6.08671304 2.51871756,5.99066087 C2.62680916,5.89497391 2.71254962,5.77518261 2.77557252,5.63165217 C2.83859542,5.48812174 2.87010687,5.32012174 2.87010687,5.12838261 C2.87010687,4.86469565 2.80378626,4.64191304 2.67187786,4.45930435 C2.53996947,4.27669565 2.33551145,4.10175652 2.05923664,3.93375652 C1.92696183,3.85596522 1.79908397,3.76758261 1.67596947,3.6686087 C1.55285496,3.56963478 1.4429313,3.45605217 1.34729771,3.32713043 C1.2509313,3.1982087 1.17435115,3.05175652 1.11719084,2.88704348 C1.06039695,2.72233043 1.03181679,2.53205217 1.03181679,2.31657391 C1.03181679,2.01088696 1.0831145,1.73551304 1.1849771,1.48972174 C1.28720611,1.24429565 1.42534351,1.03612174 1.59975573,0.865565217 C1.77416794,0.694643478 1.97679389,0.563165217 2.208,0.470034783 C2.43920611,0.377269565 2.68726718,0.330886957 2.95145038,0.330886957 C3.2519084,0.330886957 3.52085496,0.380556522 3.75792366,0.479165217 C3.99535878,0.57813913 4.18625954,0.720208696 4.33025954,0.90573913 L3.80775573,1.45429565 Z" id="Shape"></path>
                        <polygon id="Shape" points="8.22338931 6.84417391 7.45722137 6.84417391 7.9800916 3.88846957 5.6999084 3.88846957 5.18619847 6.84417391 4.41123664 6.84417391 5.51963359 0.483913043 6.29459542 0.483913043 5.81679389 3.20587826 8.08818321 3.20587826 8.55645802 0.483913043 9.33141985 0.483913043"></polygon>
                        <polygon id="Shape" points="10.386687 6.84417391 9.61172519 6.84417391 10.7201221 0.483913043 11.495084 0.483913043"></polygon>
                        <path d="M15.8121527,1.9572 C15.8121527,2.29867826 15.7656183,2.60107826 15.6725496,2.8644 C15.5791145,3.12808696 15.4486718,3.35086957 15.2804885,3.53347826 C15.1123053,3.71645217 14.9107786,3.8556 14.6766412,3.95165217 C14.4425038,4.04733913 14.1808855,4.09554783 13.8925191,4.09554783 L13.0094656,4.09554783 L12.5316641,6.84417391 L11.7654962,6.84417391 L12.8738931,0.483913043 L14.3432061,0.483913043 C14.5531603,0.483913043 14.748458,0.51386087 14.9290992,0.573756522 C15.1090076,0.633652174 15.264,0.723495652 15.3933435,0.843286957 C15.522687,0.963078261 15.6245496,1.11573913 15.6996641,1.30126957 C15.7747786,1.48716522 15.8121527,1.70593043 15.8121527,1.9572 Z M15.055145,2.05617391 C15.055145,1.7808 14.9888244,1.56093913 14.856916,1.39586087 C14.7250076,1.23078261 14.5143206,1.1486087 14.2259542,1.1486087 L13.5319695,1.1486087 L13.135145,3.45714783 L13.8833588,3.45714783 C14.249771,3.45714783 14.5366718,3.33297391 14.7440611,3.08426087 C14.9518168,2.83627826 15.055145,2.49333913 15.055145,2.05617391 Z" id="Shape"></path>
                        <path d="M21.0034809,1.45429565 C20.7814351,1.17271304 20.483542,1.03210435 20.1109008,1.03210435 C19.984855,1.03210435 19.8555115,1.05730435 19.7232366,1.10843478 C19.5909618,1.15956522 19.4722443,1.23406957 19.367084,1.33267826 C19.2619237,1.43165217 19.175084,1.55874783 19.1058321,1.71469565 C19.0365802,1.87064348 19.0021374,2.05033043 19.0021374,2.25375652 C19.0021374,2.51123478 19.068458,2.7194087 19.2003664,2.87827826 C19.3326412,3.03714783 19.5099847,3.18506087 19.7320305,3.32311304 C19.8763969,3.4125913 20.0145344,3.50864348 20.1468092,3.61053913 C20.2787176,3.71206957 20.3978015,3.82930435 20.5029618,3.96078261 C20.6081221,4.09226087 20.6923969,4.24236522 20.7550534,4.40963478 C20.8184427,4.57726957 20.8499542,4.76608696 20.8499542,4.97572174 C20.8499542,5.29930435 20.8001221,5.58526957 20.7011908,5.83361739 C20.6018931,6.08233043 20.4652214,6.29342609 20.2911756,6.46690435 C20.1171298,6.64038261 19.9112061,6.7725913 19.673771,6.86206957 C19.4363359,6.95191304 19.1824122,6.99683478 18.912,6.99683478 C18.5877252,6.99683478 18.2858015,6.93073043 18.006229,6.79925217 C17.7266565,6.66777391 17.5090076,6.49685217 17.352916,6.28721739 L17.8757863,5.73062609 C17.9959695,5.90446957 18.1458321,6.04069565 18.3261069,6.13930435 C18.5063817,6.23791304 18.701313,6.28721739 18.912,6.28721739 C19.062229,6.28721739 19.2065954,6.26201739 19.3447328,6.21088696 C19.4832366,6.16012174 19.6063511,6.08671304 19.7144427,5.99066087 C19.8225344,5.89497391 19.9082748,5.77518261 19.9712977,5.63165217 C20.0343206,5.48812174 20.0658321,5.32012174 20.0658321,5.12838261 C20.0658321,4.86469565 19.9995115,4.64191304 19.8676031,4.45930435 C19.7356947,4.27669565 19.5312366,4.10175652 19.2549618,3.93375652 C19.122687,3.85596522 18.9948092,3.76758261 18.8716947,3.6686087 C18.7485802,3.56963478 18.6386565,3.45605217 18.5430229,3.32713043 C18.4466565,3.1982087 18.3700763,3.05175652 18.312916,2.88704348 C18.2561221,2.72233043 18.227542,2.53205217 18.227542,2.31657391 C18.227542,2.01088696 18.2788397,1.73551304 18.3807023,1.48972174 C18.4829313,1.24429565 18.6210687,1.03612174 18.7954809,0.865565217 C18.9698931,0.694643478 19.1725191,0.563165217 19.4037252,0.470034783 C19.6349313,0.377269565 19.8829924,0.330886957 20.1471756,0.330886957 C20.4476336,0.330886957 20.7165802,0.380556522 20.9536489,0.479165217 C21.191084,0.57813913 21.3819847,0.720208696 21.5259847,0.90573913 L21.0034809,1.45429565 Z" id="Shape"></path>
                        <polygon id="Shape" points="25.9331908 6.84417391 26.861313 1.57993043 26.8345649 1.57993043 24.4821985 6.84417391 23.7523053 6.84417391 23.2745038 1.57993043 23.2473893 1.57993043 22.3192672 6.84417391 21.6073282 6.84417391 22.7340458 0.483913043 23.8695573 0.483913043 24.3294046 5.53267826 24.365313 5.53267826 26.6095878 0.483913043 27.8260763 0.483913043 26.6997252 6.84417391"></polygon>
                        <path d="M30.8629008,6.84417391 L30.7998779,5.33509565 L28.9073588,5.33509565 L28.2404885,6.84417391 L27.4472061,6.84417391 L30.3132824,0.483913043 L31.331542,0.483913043 L31.6470229,6.84417391 L30.8629008,6.84417391 Z M30.7009466,1.20266087 L30.6646718,1.20266087 L29.1418626,4.72445217 L30.8090382,4.72445217 L30.7009466,1.20266087 Z" id="Shape"></path>
                        <path d="M36.5862595,1.93017391 C36.5862595,2.18801739 36.551084,2.42577391 36.4814656,2.64453913 C36.4118473,2.86330435 36.312916,3.05650435 36.1850382,3.22377391 C36.0575267,3.39177391 35.9080305,3.53238261 35.7365496,3.64596522 C35.5654351,3.75991304 35.3778321,3.84062609 35.173374,3.88846957 L36.0205191,6.84417391 L35.2092824,6.84417391 L34.4522748,3.98744348 L33.6952672,3.98744348 L33.1995115,6.84417391 L32.4425038,6.84417391 L33.5509008,0.483913043 L35.0202137,0.483913043 C35.5189008,0.483913043 35.9047328,0.603704348 36.1769771,0.843286957 C36.4499542,1.08323478 36.5862595,1.44516522 36.5862595,1.93017391 Z M35.8292519,2.02951304 C35.8292519,1.71213913 35.7435115,1.4846087 35.5723969,1.34655652 C35.400916,1.20886957 35.1832672,1.1402087 34.919084,1.1402087 L34.1888244,1.1402087 L33.8011603,3.38593043 L34.5673282,3.38593043 C34.7476031,3.38593043 34.9143206,3.35452174 35.0674809,3.29133913 C35.2206412,3.22852174 35.3543817,3.13721739 35.4687023,3.01742609 C35.5830229,2.89763478 35.6716947,2.75556522 35.7347176,2.59085217 C35.7977405,2.42613913 35.8292519,2.23878261 35.8292519,2.02951304 Z" id="Shape"></path>
                        <polygon id="Shape" points="40.2272977 1.14897391 39.0108092 1.14897391 38.0105038 6.84453913 37.2443359 6.84453913 38.2446412 1.14897391 37.018626 1.14897391 37.1358779 0.484278261 40.3441832 0.484278261"></polygon>
                        <polygon id="Shape" points="43.5077863 1.16686957 41.6511756 1.16686957 41.2909924 3.22377391 43.0570992 3.22377391 42.9402137 3.8618087 41.1825344 3.8618087 40.7860763 6.16158261 42.7870534 6.16158261 42.6698015 6.84417391 39.9209771 6.84417391 41.029374 0.483913043 43.6250382 0.483913043"></polygon>
                        <path d="M47.8156947,1.93017391 C47.8156947,2.18801739 47.7805191,2.42577391 47.7109008,2.64453913 C47.6412824,2.86330435 47.5423511,3.05650435 47.4144733,3.22377391 C47.2869618,3.39177391 47.1374656,3.53238261 46.9659847,3.64596522 C46.7948702,3.75991304 46.6072672,3.84062609 46.4028092,3.88846957 L47.2499542,6.84417391 L46.4387176,6.84417391 L45.6817099,3.98744348 L44.9247023,3.98744348 L44.4289466,6.84417391 L43.6719389,6.84417391 L44.7803359,0.483913043 L46.2496489,0.483913043 C46.7483359,0.483913043 47.1341679,0.603704348 47.4064122,0.843286957 C47.6793893,1.08323478 47.8156947,1.44516522 47.8156947,1.93017391 Z M47.0590534,2.02951304 C47.0590534,1.71213913 46.973313,1.4846087 46.8021985,1.34655652 C46.6307176,1.20886957 46.4130687,1.1402087 46.1488855,1.1402087 L45.418626,1.1402087 L45.0309618,3.38593043 L45.7971298,3.38593043 C45.9774046,3.38593043 46.1441221,3.35452174 46.2972824,3.29133913 C46.4504427,3.22852174 46.5841832,3.13721739 46.6985038,3.01742609 C46.8128244,2.89763478 46.9014962,2.75556522 46.9645191,2.59085217 C47.027542,2.42613913 47.0590534,2.23878261 47.0590534,2.02951304 Z" id="Shape"></path>
                    </g>
                </g>
            </g>
        </g>
    </g>
</svg>